<svg width="18" height="16" viewBox="0 0 18 16" fill="none" xmlns="http://www.w3.org/2000/svg">
<path d="M16.2141 3.42854H2.8125C2.50172 3.42854 2.25 3.17283 2.25 2.85711C2.25 2.5414 2.50172 2.28568 2.8125 2.28568H16.3125C16.6233 2.28568 16.875 2.02997 16.875 1.71426C16.875 0.767469 16.1195 -3.05176e-05 15.1875 -3.05176e-05H2.25C1.00723 -3.05176e-05 0 1.02318 0 2.28568V13.7143C0 14.9768 1.00723 16 2.25 16H16.2141C17.1991 16 18 15.231 18 14.2857V5.14283C18 4.19747 17.1991 3.42854 16.2141 3.42854ZM14.625 10.8571C14.0038 10.8571 13.5 10.3453 13.5 9.71426C13.5 9.08318 14.0038 8.5714 14.625 8.5714C15.2462 8.5714 15.75 9.08318 15.75 9.71426C15.75 10.3453 15.2462 10.8571 14.625 10.8571Z" fill="white"/>
</svg>
